<?xml version="1.0" encoding="UTF-8"?>
<svg width="200px" height="20px" viewBox="0 0 200 20" version="1.1" xmlns="http://www.w3.org/2000/svg" xmlns:xlink="http://www.w3.org/1999/xlink">
    <!-- Generator: Sketch 57.1 (83088) - https://sketch.com -->
    <title>components/branding/logo</title>
    <desc>Created with Sketch.</desc>
    <defs>
        <linearGradient x1="0.0534688996%" y1="49.9873785%" x2="99.8842858%" y2="49.9873785%" id="linearGradient-1">
            <stop stop-color="#F9A21B" offset="0.7281387%"></stop>
            <stop stop-color="#63C4EF" offset="21.34%"></stop>
            <stop stop-color="#E60F8C" offset="65.16%"></stop>
            <stop stop-color="#81C56E" offset="100%"></stop>
        </linearGradient>
        <linearGradient x1="-0.241442201%" y1="50.1169412%" x2="99.9908569%" y2="50.1169412%" id="linearGradient-2">
            <stop stop-color="#F9A21B" offset="0.7281387%"></stop>
            <stop stop-color="#63C4EF" offset="21.34%"></stop>
            <stop stop-color="#E60F8C" offset="65.16%"></stop>
            <stop stop-color="#81C56E" offset="100%"></stop>
        </linearGradient>
    </defs>
    <g id="Symbols" stroke="none" stroke-width="1" fill="none" fill-rule="evenodd">
        <g id="components/header-dsk-HD-3" transform="translate(-4.000000, -34.000000)">
            <g id="components/branding/logo" transform="translate(4.000000, 34.000000)">
                <g>
                    <path d="M2.62467192,6.40419948 C3.41207349,4.9343832 4.88188976,3.98950131 6.82414698,3.98950131 C9.08136483,3.98950131 10.8661417,5.09186352 11.7060367,7.13910761 C12.3884514,5.19685039 14.015748,3.98950131 16.3254593,3.98950131 C19.3175853,3.98950131 21.6272966,6.14173228 21.6272966,9.65879265 L21.6272966,19.4225722 L19.0551181,19.4225722 L19.0551181,10.2362205 C19.0551181,7.82152231 17.6377953,6.50918635 15.5905512,6.50918635 C13.5433071,6.50918635 12.1259843,7.82152231 12.1259843,10.2362205 L12.1259843,19.4225722 L9.55380577,19.4225722 L9.55380577,10.2362205 C9.55380577,7.82152231 8.13648294,6.50918635 6.14173228,6.50918635 C4.14698163,6.50918635 2.72965879,7.76902887 2.62467192,10.0262467 L2.62467192,19.4225722 L0,19.4225722 L0,4.30446194 L2.57217848,4.30446194 L2.57217848,6.40419948 L2.62467192,6.40419948 Z" id="Path" fill="#FFFFFF" fill-rule="nonzero"></path>
                    <path d="M39.8425197,4.04199475 C44.3044619,4.04199475 47.7165354,7.50656168 47.7165354,11.9160105 C47.7165354,16.3779528 44.3569554,19.7900262 39.8425197,19.7900262 C35.4330709,19.7900262 31.9685039,16.3779528 31.9685039,11.9160105 C32.0209974,7.45406824 35.4330709,4.04199475 39.8425197,4.04199475 Z M39.8425197,17.2703412 C42.8346457,17.2703412 45.0393701,14.855643 45.0393701,11.9160105 C45.0393701,8.97637795 42.7821522,6.61417323 39.8425197,6.61417323 C36.9028871,6.61417323 34.6456693,8.97637795 34.6456693,11.9160105 C34.6981627,14.855643 36.9028871,17.2703412 39.8425197,17.2703412 Z" id="Shape" fill="#FFFFFF" fill-rule="nonzero"></path>
                    <path d="M60.8923885,6.40419948 C61.67979,4.9343832 63.1496063,3.98950131 65.0918635,3.98950131 C67.3490814,3.98950131 69.1338583,5.09186352 69.9737533,7.13910761 C70.656168,5.19685039 72.2834646,3.98950131 74.5931759,3.98950131 C77.5853018,3.98950131 79.8950131,6.14173228 79.8950131,9.65879265 L79.8950131,19.4225722 L77.3228346,19.4225722 L77.3228346,10.2362205 C77.3228346,7.82152231 75.9055118,6.50918635 73.8582677,6.50918635 C71.8110236,6.50918635 70.3937008,7.82152231 70.3937008,10.2362205 L70.3937008,19.4225722 L67.8215223,19.4225722 L67.8215223,10.2362205 C67.8215223,7.82152231 66.4041995,6.50918635 64.4094488,6.50918635 C62.4146982,6.50918635 60.9973753,7.76902887 60.8923885,10.0262467 L60.8923885,19.4225722 L58.32021,19.4225722 L58.32021,4.30446194 L60.8923885,4.30446194 L60.8923885,6.40419948 L60.8923885,6.40419948 Z" id="Path" fill="#FFFFFF" fill-rule="nonzero"></path>
                    <path d="M92.9658793,12.8608924 C93.2808399,15.5380577 95.3805774,17.4278215 98.2677165,17.4278215 C100.367454,17.4278215 102.414698,16.5354331 103.727034,15.5380577 L103.727034,18.2152231 C102.414698,19.0551181 100.419948,19.7900262 98.1102362,19.7900262 C93.7532808,19.7900262 90.3937008,16.4829396 90.3937008,11.9160105 C90.3937008,7.50656168 93.648294,4.04199475 97.9527559,4.04199475 C102.309711,4.04199475 105.249344,7.34908136 105.249344,11.4435696 C105.249344,11.9160105 105.19685,12.5459318 105.144357,12.8608924 L92.9658793,12.8608924 L92.9658793,12.8608924 Z M92.9658793,10.8136483 L102.677165,10.8136483 C102.624672,8.0839895 100.524934,6.2992126 97.9002625,6.2992126 C95.1706037,6.24671916 93.1233596,8.24146982 92.9658793,10.8136483 Z" id="Shape" fill="#FFFFFF" fill-rule="nonzero"></path>
                    <path d="M118.110236,6.7191601 C118.950131,5.09186352 120.419948,4.04199475 122.624672,4.04199475 C126.089239,4.04199475 128.293963,6.61417323 128.293963,10.0262467 L128.293963,19.4750656 L125.721785,19.4750656 L125.721785,10.656168 C125.721785,8.24146982 124.251969,6.56167979 121.889764,6.56167979 C119.580052,6.56167979 118.16273,8.13648294 118.057743,10.4461942 L118.057743,19.4750656 L115.485564,19.4750656 L115.485564,4.35695538 L118.057743,4.35695538 L118.057743,6.7191601 L118.110236,6.7191601 Z" id="Path" fill="#FFFFFF" fill-rule="nonzero"></path>
                    <polygon id="Path" fill="#FFFFFF" fill-rule="nonzero" points="140.629921 19.4750656 140.629921 6.56167979 137.795276 6.56167979 137.795276 4.30446194 140.734908 4.30446194 140.734908 0.62992126 143.2021 0 143.2021 4.35695538 146.194226 4.35695538 146.194226 6.61417323 143.2021 6.61417323 143.2021 19.5275591 140.629921 19.5275591"></polygon>
                    <path d="M199.212598,7.55905512 C198.267717,6.82414698 197.007874,6.35170604 195.748031,6.35170604 C194.120735,6.35170604 193.28084,7.19160105 193.28084,8.29396325 C193.28084,9.08136483 193.700787,9.55380577 194.593176,10.0787402 L197.270341,11.6535433 C199.212598,12.808399 199.84252,14.1207349 199.84252,15.5905512 C199.84252,18.1627297 197.847769,19.7900262 194.645669,19.7900262 C193.070866,19.7900262 191.653543,19.3700787 190.708661,18.8976378 L190.708661,16.1154856 C191.496063,16.7979003 192.965879,17.5328084 194.488189,17.5328084 C196.220472,17.5328084 197.112861,16.7454068 197.112861,15.5905512 C197.112861,14.8031496 196.692913,14.2257218 195.538058,13.5433071 L192.755906,11.8635171 C191.181102,10.9186352 190.498688,9.65879265 190.498688,8.24146982 C190.498688,5.87926509 192.283465,4.09448819 195.643045,4.09448819 C196.955381,4.09448819 198.267717,4.46194226 199.107612,4.88188976 L199.107612,7.55905512 L199.212598,7.55905512 Z" id="Path" fill="#FFFFFF" fill-rule="nonzero"></path>
                    <g id="infinity" transform="translate(151.860885, 5.013528)" fill-rule="nonzero">
                        <g id="Group" transform="translate(0.000000, -0.000000)">
                            <path d="M5.51444352,12.9917215 C5.19948289,12.9917215 4.83202883,12.9392281 4.5170682,12.8342412 C2.20735691,11.9418528 1.62992909,8.47728583 2.15486347,6.32505485 C2.67979786,4.01534357 4.35958788,1.91560604 6.56431229,0.918230707 C8.97901045,-0.184131498 11.4986955,0.288309447 13.5459396,2.17807323 C14.4908215,3.07046168 15.4357034,4.06783701 16.3280918,5.0127189 C16.7480393,5.48515984 17.1679868,5.90510735 17.5879343,6.37754829 C19.1627375,5.17019921 20.8425275,3.91035669 22.6273044,2.80799449 L22.6797979,2.75550105 C24.0446273,1.96809947 25.7244173,0.918230707 27.4042073,0.655763516 C27.8241548,0.603270077 28.2965958,0.550776639 28.6640498,0.603270077 C29.766412,0.708256954 30.8687742,1.39067165 31.7086692,2.44054042 C33.6509265,4.90773202 33.8084068,7.53240394 33.1259921,9.00222021 C32.4435774,10.4720365 31.2887217,11.4169184 29.7139186,11.8368659 C27.6666745,12.3618003 23.9921338,11.8893593 20.9475144,9.63214147 C19.7401653,8.73975302 18.6378031,7.68988425 17.5879343,6.58752205 C17.3779606,6.74500236 17.1679868,6.90248268 16.9580131,7.05996299 C13.7559133,9.52715459 10.5013202,12.0468396 6.56431229,12.7817478 C6.19685822,12.9392281 5.88189759,12.9917215 5.51444352,12.9917215 Z M9.18898421,0.498283201 C8.34908919,0.498283201 7.50919418,0.708256954 6.66929917,1.07571102 C4.5170682,2.02059291 2.88977161,4.06783701 2.36483723,6.32505485 C1.89239628,8.42479239 2.41733066,11.731879 4.62205507,12.6242675 C5.25197633,12.8867346 5.93439103,12.7817478 6.45932541,12.6767609 C10.3438399,11.9418528 13.598433,9.42216772 16.8005328,7.00746955 C17.0105065,6.84998924 17.2204803,6.69250892 17.430454,6.53502861 C17.0105065,6.06258766 16.590559,5.64264016 16.1706115,5.17019921 C15.2782231,4.22531732 14.3858346,3.22794199 13.4409527,2.33555354 C12.1286168,1.12820446 10.6588005,0.498283201 9.18898421,0.498283201 Z M17.6929212,6.53502861 C18.74279,7.63739081 19.7926587,8.63476614 21.0000078,9.52715459 C23.2047322,11.1544512 26.8267795,12.4142937 29.6089317,11.6793856 C31.1312414,11.3119315 32.2336036,10.3670496 32.9160183,8.94972677 C33.8609002,6.95497611 32.8635249,4.27781076 31.4986955,2.59802073 C30.7112939,1.60064541 29.6614252,0.970724146 28.6115564,0.813243831 C28.2441023,0.760750392 27.8241548,0.760750392 27.4042073,0.865737269 L27.4042073,0.865737269 C25.7769107,1.12820446 24.0971207,2.12557979 22.7322913,2.91298136 L22.6797979,2.9654748 C20.9475144,4.06783701 19.2677244,5.32767953 17.6929212,6.53502861 Z" id="Shape" fill="url(#linearGradient-1)"></path>
                            <path d="M25.8818976,14.1465772 C23.8871469,14.1465772 21.8399028,13.5691493 20.3175931,12.4142937 C18.5328162,11.1019577 17.063,9.2646874 15.6981706,7.4799105 C12.3910839,9.31718084 8.97901045,11.1019577 5.30446977,12.0993331 C4.04462725,12.4142937 2.78478473,12.2043199 1.83990284,11.5219052 C0.737540638,10.6820102 0.0551259394,9.31718084 0.00263250103,7.68988425 C-0.0498609373,5.95760079 0.685047199,4.06783701 1.99738316,2.59802073 C3.30971912,1.12820446 5.14698946,0.183322571 6.93176636,0.0258422558 C10.2913464,-0.289118374 12.3910839,2.33555354 14.2283543,4.59277139 L14.4908215,4.90773202 C14.9632624,5.48515984 15.3832099,6.06258766 15.8031574,6.58752205 C15.8031574,6.64001548 15.8556509,6.64001548 15.8556509,6.69250892 C15.9081443,6.69250892 15.9081443,6.64001548 15.9606378,6.64001548 L17.063,6.06258766 C19.7926587,4.59277139 22.574811,3.01796824 25.4619501,1.91560604 C26.0918713,1.65313884 26.7217926,1.49565853 27.2992204,1.44316509 L27.2992204,1.44316509 C27.9816351,1.33817821 28.6115564,1.39067165 29.1889842,1.54815197 C31.4986955,2.17807323 32.6010577,4.43529107 33.0734986,5.74762703 C33.5459396,7.05996299 33.6509265,8.1623252 33.4409527,9.15970052 C33.1784855,10.419543 32.3910839,11.6268921 31.2362283,12.4667871 C29.766412,13.5691493 27.8241548,14.1465772 25.8818976,14.1465772 Z M16.1706115,7.21744331 C17.5354409,8.94972677 18.9002703,10.6820102 20.6325538,11.9418528 C23.4671994,14.0415903 28.086622,14.0940837 30.8687742,12.0468396 C31.918643,11.2594381 32.6535511,10.2095693 32.8635249,9.10720709 C33.0210052,8.21481863 32.9160183,7.21744331 32.4960708,6.01009422 C32.0761233,4.80274514 31.078748,2.70300761 28.9790105,2.17807323 C28.4540761,2.02059291 27.9291417,2.02059291 27.2992204,2.07308635 L27.2992204,2.07308635 C26.774286,2.12557979 26.1968582,2.2830601 25.6194304,2.49303386 C22.7322913,3.59539606 19.9501391,5.11770577 17.2729737,6.58752205 L16.1706115,7.21744331 C16.2231049,7.21744331 16.1706115,7.21744331 16.1706115,7.21744331 Z M7.35171387,0.655763516 C7.19423355,0.655763516 7.03675324,0.655763516 6.87927292,0.655763516 C5.25197633,0.813243831 3.57218631,1.65313884 2.36483723,3.01796824 C1.10499471,4.38279764 0.475073446,6.06258766 0.527566884,7.68988425 C0.580060323,9.10720709 1.15748814,10.3670496 2.15486347,11.0494643 C2.99475849,11.6793856 3.99213381,11.8368659 5.14698946,11.5219052 C8.71654326,10.5770234 12.0761233,8.79224646 15.3307165,7.00746955 C15.3307165,7.00746955 15.3307165,7.00746955 15.3307165,7.00746955 C14.910769,6.43004173 14.438328,5.85261391 14.0183805,5.32767953 L13.7559133,5.0127189 C11.9711364,2.86048793 10.1863595,0.655763516 7.35171387,0.655763516 Z" id="Shape" fill="url(#linearGradient-2)"></path>
                        </g>
                    </g>
                </g>
            </g>
        </g>
    </g>
</svg>