<?xml version="1.0" encoding="UTF-8"?>
<svg width="238px" height="24px" viewBox="0 0 238 24" version="1.1" xmlns="http://www.w3.org/2000/svg" xmlns:xlink="http://www.w3.org/1999/xlink">
    <!-- Generator: Sketch 57.1 (83088) - https://sketch.com -->
    <title>logo-momentoos.svg</title>
    <desc>Created with Sketch.</desc>
    <defs>
        <linearGradient x1="0.0534688996%" y1="49.9873785%" x2="99.8842858%" y2="49.9873785%" id="linearGradient-1">
            <stop stop-color="#F9A21B" offset="0.7281387%"></stop>
            <stop stop-color="#63C4EF" offset="21.34%"></stop>
            <stop stop-color="#E60F8C" offset="65.16%"></stop>
            <stop stop-color="#81C56E" offset="100%"></stop>
        </linearGradient>
        <linearGradient x1="-0.241442201%" y1="50.1169412%" x2="99.9908569%" y2="50.1169412%" id="linearGradient-2">
            <stop stop-color="#F9A21B" offset="0.7281387%"></stop>
            <stop stop-color="#63C4EF" offset="21.34%"></stop>
            <stop stop-color="#E60F8C" offset="65.16%"></stop>
            <stop stop-color="#81C56E" offset="100%"></stop>
        </linearGradient>
    </defs>
    <g id="Symbols" stroke="none" stroke-width="1" fill="none" fill-rule="evenodd">
        <g id="components/header-dsk-HD-3" transform="translate(3.000000, -32.000000)">
            <g id="components/branding/logo" transform="translate(-3.000000, 32.000000)">
                <g>
                    <path d="M3.12335958,7.62404699 C4.06036745,5.87426572 5.80944882,4.74940632 8.12073491,4.74940632 C10.8068241,4.74940632 12.9307087,6.06174228 13.9301837,8.49893763 C14.7422572,6.18672666 16.6787402,4.74940632 19.4272966,4.74940632 C22.9879265,4.74940632 25.7364829,7.31158605 25.7364829,11.4985627 L25.7364829,23.1221097 L22.6755906,23.1221097 L22.6755906,12.1859768 C22.6755906,9.31133608 20.9889764,7.74903137 18.5527559,7.74903137 C16.1165354,7.74903137 14.4299213,9.31133608 14.4299213,12.1859768 L14.4299213,23.1221097 L11.3690289,23.1221097 L11.3690289,12.1859768 C11.3690289,9.31133608 9.6824147,7.74903137 7.30866142,7.74903137 C4.93490814,7.74903137 3.24829396,9.24884389 3.12335958,11.936008 L3.12335958,23.1221097 L0,23.1221097 L0,5.12435946 L3.06089239,5.12435946 L3.06089239,7.62404699 L3.12335958,7.62404699 Z" id="Path" fill="#FFFFFF" fill-rule="nonzero"></path>
                    <path d="M47.4125984,4.81189851 C52.7223097,4.81189851 56.7826772,8.93638295 56.7826772,14.1857268 C56.7826772,19.4975628 52.7847769,23.5595551 47.4125984,23.5595551 C42.1653543,23.5595551 38.0425197,19.4975628 38.0425197,14.1857268 C38.1049869,8.87389076 42.1653543,4.81189851 47.4125984,4.81189851 Z M47.4125984,20.55993 C50.9732283,20.55993 53.5968504,17.6852893 53.5968504,14.1857268 C53.5968504,10.6861642 50.9107612,7.87401575 47.4125984,7.87401575 C43.9144357,7.87401575 41.2283465,10.6861642 41.2283465,14.1857268 C41.2908136,17.6852893 43.9144357,20.55993 47.4125984,20.55993 Z" id="Shape" fill="#FFFFFF" fill-rule="nonzero"></path>
                    <path d="M72.4619423,7.62404699 C73.3989501,5.87426572 75.1480315,4.74940632 77.4593176,4.74940632 C80.1454068,4.74940632 82.2692913,6.06174228 83.2687664,8.49893763 C84.0808399,6.18672666 86.0173228,4.74940632 88.7658793,4.74940632 C92.3265092,4.74940632 95.0750656,7.31158605 95.0750656,11.4985627 L95.0750656,23.1221097 L92.0141732,23.1221097 L92.0141732,12.1859768 C92.0141732,9.31133608 90.3275591,7.74903137 87.8913386,7.74903137 C85.4551181,7.74903137 83.7685039,9.31133608 83.7685039,12.1859768 L83.7685039,23.1221097 L80.7076115,23.1221097 L80.7076115,12.1859768 C80.7076115,9.31133608 79.0209974,7.74903137 76.6472441,7.74903137 C74.2734908,7.74903137 72.5868766,9.24884389 72.4619423,11.936008 L72.4619423,23.1221097 L69.4010499,23.1221097 L69.4010499,5.12435946 L72.4619423,5.12435946 L72.4619423,7.62404699 L72.4619423,7.62404699 Z" id="Path" fill="#FFFFFF" fill-rule="nonzero"></path>
                    <path d="M110.629396,15.3105862 C111.004199,18.4976878 113.502887,20.7474066 116.938583,20.7474066 C119.43727,20.7474066 121.873491,19.6850394 123.435171,18.4976878 L123.435171,21.6847894 C121.873491,22.6846644 119.499738,23.5595551 116.751181,23.5595551 C111.566404,23.5595551 107.568504,19.6225472 107.568504,14.1857268 C107.568504,8.93638295 111.44147,4.81189851 116.56378,4.81189851 C121.748556,4.81189851 125.246719,8.74890639 125.246719,13.6232971 C125.246719,14.1857268 125.184252,14.935633 125.121785,15.3105862 L110.629396,15.3105862 L110.629396,15.3105862 Z M110.629396,12.8733908 L122.185827,12.8733908 C122.12336,9.62379703 119.624672,7.49906262 116.501312,7.49906262 C113.253018,7.43657043 110.816798,9.81127359 110.629396,12.8733908 Z" id="Shape" fill="#FFFFFF" fill-rule="nonzero"></path>
                    <path d="M140.551181,7.99900012 C141.550656,6.06174228 143.299738,4.81189851 145.92336,4.81189851 C150.046194,4.81189851 152.669816,7.87401575 152.669816,11.936008 L152.669816,23.1846019 L149.608924,23.1846019 L149.608924,12.6859143 C149.608924,9.81127359 147.859843,7.81152356 145.048819,7.81152356 C142.300262,7.81152356 140.613648,9.68628921 140.488714,12.4359455 L140.488714,23.1846019 L137.427822,23.1846019 L137.427822,5.18685164 L140.488714,5.18685164 L140.488714,7.99900012 L140.551181,7.99900012 Z" id="Path" fill="#FFFFFF" fill-rule="nonzero"></path>
                    <polygon id="Path" fill="#FFFFFF" fill-rule="nonzero" points="167.349606 23.1846019 167.349606 7.81152356 163.976378 7.81152356 163.976378 5.12435946 167.474541 5.12435946 167.474541 0.749906262 170.410499 0 170.410499 5.18685164 173.971129 5.18685164 173.971129 7.87401575 170.410499 7.87401575 170.410499 23.2470941 167.349606 23.2470941"></polygon>
                    <path d="M237.062992,8.99887514 C235.938583,8.1239845 234.43937,7.56155481 232.940157,7.56155481 C231.003675,7.56155481 230.004199,8.56142982 230.004199,9.87376578 C230.004199,10.8111486 230.503937,11.3735783 231.565879,11.9985002 L234.751706,13.8732658 C237.062992,15.248094 237.812598,16.8103987 237.812598,18.56018 C237.812598,21.6222972 235.438845,23.5595551 231.628346,23.5595551 C229.754331,23.5595551 228.067717,23.0596175 226.943307,22.4971879 L226.943307,19.1851019 C227.880315,19.9975003 229.629396,20.872391 231.440945,20.872391 C233.502362,20.872391 234.564304,19.9350081 234.564304,18.56018 C234.564304,17.6227972 234.064567,16.9353831 232.690289,16.1229846 L229.379528,14.1232346 C227.505512,12.9983752 226.693438,11.4985627 226.693438,9.81127359 C226.693438,6.99912511 228.817323,4.8743907 232.815223,4.8743907 C234.376903,4.8743907 235.938583,5.31183602 236.938058,5.81177353 L236.938058,8.99887514 L237.062992,8.99887514 Z" id="Path" fill="#FFFFFF" fill-rule="nonzero"></path>
                    <g id="infinity" transform="translate(180.714453, 5.968486)" fill-rule="nonzero">
                        <g id="Group" transform="translate(0.000000, -0.000000)">
                            <path d="M6.56218779,15.4663351 C6.18738464,15.4663351 5.7501143,15.403843 5.37531115,15.2788586 C2.62675472,14.2164914 1.93961562,10.0920069 2.56428753,7.52982721 C3.18895945,4.78017091 5.18790958,2.28048338 7.81153163,1.09313179 C10.6850224,-0.219204164 13.6834476,0.343225533 16.1196681,2.59294432 C17.2440776,3.65531152 18.368487,4.8426631 19.4304293,5.9675225 C19.9301668,6.52995219 20.4299043,7.0298897 20.9296419,7.5923194 C22.8036576,6.15499906 24.8026077,4.65518654 26.9264923,3.34285058 L26.9889594,3.28035839 C28.6131064,2.34297556 30.6120566,1.09313179 32.6110067,0.780670852 C33.1107442,0.718178663 33.6729489,0.655686475 34.1102193,0.718178663 C35.4220303,0.84316304 36.7338413,1.65556149 37.7333164,2.90540526 C40.0446025,5.84253812 40.2320041,8.96714754 39.4199306,10.7169288 C38.6078571,12.4667101 37.2335789,13.5915695 35.3595631,14.091507 C32.9233426,14.7164289 28.5506392,14.1539992 24.9275421,11.4668351 C23.4907967,10.4044679 22.1789857,9.15462411 20.9296419,7.84228815 C20.6797731,8.02976472 20.4299043,8.21724128 20.1800356,8.40471785 C16.3695369,11.3418507 12.496571,14.3414758 7.81153163,15.2163664 C7.37426129,15.403843 6.99945814,15.4663351 6.56218779,15.4663351 Z M10.9348912,0.593194286 C9.93541614,0.593194286 8.93594108,0.84316304 7.93646601,1.28060836 C5.37531115,2.40546775 3.43882821,4.8426631 2.8141563,7.52982721 C2.25195157,10.0295147 2.87662349,13.9665226 5.50024554,15.0288898 C6.24985184,15.3413508 7.06192533,15.2163664 7.68659724,15.091382 C12.3091694,14.2164914 16.1821353,11.2168663 19.992634,8.34222566 C20.2425028,8.15474909 20.4923715,7.96727253 20.7422403,7.77979596 C20.2425028,7.21736626 19.7427652,6.71742876 19.2430277,6.15499906 C18.1810854,5.03013967 17.1191432,3.84278809 15.9947337,2.78042088 C14.4330539,1.34310055 12.6839726,0.593194286 10.9348912,0.593194286 Z M21.0545762,7.77979596 C22.3039201,9.09213192 23.5532639,10.2794835 24.9900093,11.3418507 C27.6136314,13.2791085 31.9238676,14.7789211 35.2346287,13.9040304 C37.0461773,13.4665851 38.3579883,12.3417257 39.1700618,10.6544366 C40.2944713,8.27973347 39.1075946,5.09263186 37.4834476,3.09288183 C36.5464398,1.90553024 35.2970959,1.15562398 34.0477521,0.968147417 C33.6104818,0.905655229 33.1107442,0.905655229 32.6110067,1.03063961 L32.6110067,1.03063961 C30.6745238,1.34310055 28.6755736,2.53045213 27.0514266,3.46783496 L26.9889594,3.53032714 C24.9275421,4.8426631 22.928592,6.34247563 21.0545762,7.77979596 Z" id="Shape" fill="url(#linearGradient-1)"></path>
                            <path d="M30.7994581,16.8411633 C28.4257049,16.8411633 25.9894844,16.1537492 24.1779358,14.7789211 C22.0540513,13.2166164 20.3049699,11.0293898 18.680823,8.90465535 C14.7453899,11.091882 10.6850224,13.2166164 6.31231903,14.4039679 C4.81310643,14.7789211 3.31389383,14.5289523 2.18948438,13.7165539 C0.877673359,12.7166789 0.0655998678,11.091882 0.00313267623,9.15462411 C-0.0593345154,7.09238189 0.815206167,4.8426631 2.37688596,3.09288183 C3.93856575,1.34310055 6.12491745,0.218241156 8.24880197,0.0307645902 C12.2467022,-0.344188541 14.7453899,2.78042088 16.9317416,5.46758499 L17.2440776,5.84253812 C17.8062823,6.52995219 18.3060198,7.21736626 18.8057573,7.84228815 C18.8057573,7.90478034 18.8682245,7.90478034 18.8682245,7.96727253 C18.9306917,7.96727253 18.9306917,7.90478034 18.9931589,7.90478034 L20.3049699,7.21736626 C23.5532639,5.46758499 26.8640251,3.59281933 30.2997206,2.28048338 C31.0493269,1.96802243 31.7989332,1.78054587 32.4860723,1.71805368 L32.4860723,1.71805368 C33.2981458,1.5930693 34.0477521,1.65556149 34.7348912,1.84303806 C37.4834476,2.59294432 38.7952587,5.28010842 39.3574634,6.84241313 C39.9196681,8.40471785 40.0446025,9.7170538 39.7947337,10.9044054 C39.4823978,12.4042179 38.5453899,13.8415382 37.1711117,14.8414133 C35.4220303,16.1537492 33.1107442,16.8411633 30.7994581,16.8411633 Z M19.2430277,8.59219441 C20.8671747,10.6544366 22.4913217,12.7166789 24.552739,14.2164914 C27.9259673,16.7161789 33.4230802,16.7786711 36.7338413,14.3414758 C37.9831852,13.4040929 38.8577259,12.1542492 39.1075946,10.8419132 C39.2949962,9.77954599 39.1700618,8.59219441 38.6703243,7.15487408 C38.1705867,5.71755374 36.9837101,3.2178662 34.4850224,2.59294432 C33.8603505,2.40546775 33.2356786,2.40546775 32.4860723,2.46795994 L32.4860723,2.46795994 C31.8614004,2.53045213 31.1742613,2.71792869 30.4871222,2.96789745 C27.0514266,4.28023341 23.7406655,6.09250687 20.5548387,7.84228815 L19.2430277,8.59219441 C19.3054949,8.59219441 19.2430277,8.59219441 19.2430277,8.59219441 Z M8.7485395,0.780670852 C8.56113793,0.780670852 8.37373635,0.780670852 8.18633478,0.780670852 C6.24985184,0.968147417 4.25090171,1.96802243 2.8141563,3.59281933 C1.3149437,5.21761623 0.565337401,7.21736626 0.627804592,9.15462411 C0.690271784,10.8419132 1.37741089,12.3417257 2.56428753,13.1541242 C3.5637626,13.9040304 4.75063924,14.091507 6.12491745,13.7165539 C10.3726865,12.5916945 14.3705867,10.4669601 18.2435526,8.34222566 C18.2435526,8.34222566 18.2435526,8.34222566 18.2435526,8.34222566 C17.7438151,7.65481158 17.1816104,6.96739751 16.6818728,6.34247563 L16.3695369,5.9675225 C14.2456524,3.40534277 12.1217678,0.780670852 8.7485395,0.780670852 Z" id="Shape" fill="url(#linearGradient-2)"></path>
                        </g>
                    </g>
                </g>
            </g>
        </g>
    </g>
</svg>