<?xml version="1.0" encoding="UTF-8"?>
<svg width="61px" height="26px" viewBox="0 0 61 26" version="1.1" xmlns="http://www.w3.org/2000/svg" xmlns:xlink="http://www.w3.org/1999/xlink">
    <!-- Generator: Sketch 57.1 (83088) - https://sketch.com -->
    <title>components/branding/monogram</title>
    <desc>Created with Sketch.</desc>
    <defs>
        <linearGradient x1="0.0534688996%" y1="49.9873785%" x2="99.8842858%" y2="49.9873785%" id="linearGradient-1">
            <stop stop-color="#F9A21B" offset="0.7281387%"></stop>
            <stop stop-color="#63C4EF" offset="21.34%"></stop>
            <stop stop-color="#E60F8C" offset="65.16%"></stop>
            <stop stop-color="#81C56E" offset="100%"></stop>
        </linearGradient>
        <linearGradient x1="-0.241442201%" y1="50.1169412%" x2="99.9908569%" y2="50.1169412%" id="linearGradient-2">
            <stop stop-color="#F9A21B" offset="0.7281387%"></stop>
            <stop stop-color="#63C4EF" offset="21.34%"></stop>
            <stop stop-color="#E60F8C" offset="65.16%"></stop>
            <stop stop-color="#81C56E" offset="100%"></stop>
        </linearGradient>
    </defs>
    <g id="Symbols" stroke="none" stroke-width="1" fill="none" fill-rule="evenodd">
        <g id="components/header-mob" transform="translate(-20.000000, -17.000000)">
            <g id="components/branding/monogram" transform="translate(20.000000, 17.000000)">
                <g id="Shape">
                    <path d="M6.34995611,24.5865 C5.78487968,24.5865 5.12562386,24.4920118 4.56054743,24.3030354 C0.416653653,22.6967362 -0.619319791,16.4605157 0.322474249,12.5865 C1.26426829,8.42901965 4.27800922,4.64949209 8.23354419,2.8542165 C12.5657968,0.869964532 17.0864082,1.72035823 20.7594049,5.12193304 C22.4546342,6.72823225 24.1498635,8.52350784 25.7509133,10.2242952 C26.5043486,11.0746889 27.2577838,11.8305945 28.011219,12.6809882 C30.8366012,10.5077598 33.8503421,8.24004327 37.0524418,6.2557913 L37.1466212,6.16130312 C39.5952857,4.74398028 42.6090267,2.8542165 45.6227676,2.38177556 C46.3762028,2.28728737 47.2238175,2.19279918 47.8830733,2.28728737 C49.8608408,2.47626374 51.8386083,3.7046102 53.3454787,5.59437398 C56.8301167,10.0353189 57.1126549,14.7597283 55.8883226,17.4053976 C54.6639904,20.0510669 52.5920435,21.7518543 49.7666614,22.5077598 C46.0936646,23.4526417 39.5011063,22.602248 34.0387009,18.5392559 C31.8725746,16.9329567 29.8948071,15.0431929 28.011219,13.0589409 C27.6345014,13.3424055 27.2577838,13.62587 26.8810662,13.9093346 C21.1361225,18.3502795 15.2969995,22.8857126 8.23354419,24.2085472 C7.57428836,24.4920118 7.00921194,24.5865 6.34995611,24.5865 Z M12.9425144,2.09831099 C11.4356439,2.09831099 9.92877346,2.47626374 8.421903,3.13768107 C4.56054743,4.83846847 1.64098591,8.52350784 0.699191865,12.5865 C-0.148422771,16.3660275 0.793371269,22.3187834 4.74890624,23.9250826 C5.87905909,24.3975236 7.10339134,24.2085472 8.04518538,24.0195708 C15.0144613,22.6967362 20.8535843,18.1613031 26.598528,13.8148464 C26.9752456,13.5313819 27.3519632,13.2479173 27.7286808,12.9644527 C26.9752456,12.114059 26.2218104,11.3581535 25.4683751,10.5077598 C23.8673253,8.80697241 22.2662754,7.01169682 20.5710461,5.4053976 C18.216561,3.23216926 15.5795377,2.09831099 12.9425144,2.09831099 Z M28.1995778,12.9644527 C30.0831659,14.9487047 31.966754,16.7439803 34.1328803,18.3502795 C38.0884153,21.2794134 44.5867942,23.5471299 49.5783026,22.2242952 C52.3095053,21.5628779 54.2872728,19.8620905 55.511605,17.3109094 C57.2068343,13.7203582 55.4174256,8.9014606 52.9687611,5.87783855 C51.55607,4.08256296 49.672482,2.94870469 47.7888939,2.66524012 C47.1296381,2.57075193 46.3762028,2.57075193 45.6227676,2.75972831 L45.6227676,2.75972831 C42.7032061,3.23216926 39.6894651,5.02744485 37.2408006,6.44476768 L37.1466212,6.53925587 C34.0387009,8.52350784 31.02496,10.7912244 28.1995778,12.9644527 Z" fill="url(#linearGradient-1)" fill-rule="nonzero"></path>
                    <path d="M46.4351692,25.4638389 C42.8563519,25.4638389 39.1833551,24.4244688 36.4521524,22.3457287 C33.2500526,19.9835239 30.6130293,16.6764373 28.1643648,13.4638389 C22.2310624,16.7709255 16.1094011,19.9835239 9.51684283,21.7787995 C7.25653713,22.3457287 4.99623143,21.9677759 3.30100216,20.7394294 C1.32323467,19.2276184 0.0989024206,16.7709255 0.00472301656,13.8417917 C-0.0894563875,10.7236814 1.22905527,7.32210661 3.58354037,4.67643732 C5.93802547,2.03076803 9.23430461,0.329980627 12.4364044,0.0465160604 C18.4638862,-0.520413073 22.2310624,4.20399638 25.5273415,8.2669885 L25.9982385,8.83391764 C26.8458532,9.87328771 27.5992884,10.9126578 28.3527236,11.8575397 C28.3527236,11.9520279 28.446903,11.9520279 28.446903,12.0465161 C28.5410824,12.0465161 28.5410824,11.9520279 28.6352618,11.9520279 L30.6130293,10.9126578 C35.5103583,8.2669885 40.5018668,5.43234283 45.681734,3.44809086 C46.8118868,2.97564992 47.9420397,2.69218535 48.9780131,2.59769716 L48.9780131,2.59769716 C50.2023454,2.40872078 51.3324982,2.50320897 52.3684717,2.78667354 C56.5123654,3.92053181 58.4901329,7.98352393 59.3377476,10.3457287 C60.1853622,12.7079334 60.373721,14.6921854 59.9970034,16.4874609 C59.5261064,18.7551775 58.1134153,20.9284058 56.0414684,22.4402168 C53.4044451,24.4244688 49.9198072,25.4638389 46.4351692,25.4638389 Z M29.0119795,12.991398 C31.460644,16.1095082 33.9093085,19.2276184 37.0172288,21.495335 C42.1029166,25.2748625 50.3907042,25.3693507 55.3822126,21.6843113 C57.2658007,20.2669885 58.5843123,18.3772247 58.9610299,16.3929728 C59.2435682,14.7866735 59.0552094,12.991398 58.3017741,10.8181696 C57.5483389,8.64494126 55.7589302,4.8654137 51.991754,3.92053181 C51.04996,3.63706724 50.108166,3.63706724 48.9780131,3.73155543 L48.9780131,3.73155543 C48.0362191,3.82604362 47.0002456,4.10950819 45.9642722,4.48746094 C40.784405,6.47171291 35.7928966,9.21187039 30.9897469,11.8575397 L29.0119795,12.991398 C29.1061589,12.991398 29.0119795,12.991398 29.0119795,12.991398 Z M13.1898396,1.18037433 C12.9073014,1.18037433 12.6247632,1.18037433 12.3422249,1.18037433 C9.42266342,1.4638389 6.40892249,2.97564992 4.2427962,5.43234283 C1.9824905,7.88903575 0.852337653,10.9126578 0.946517057,13.8417917 C1.04069646,16.3929728 2.07666991,18.6606893 3.86607858,19.8890357 C5.37294905,21.022894 7.16235772,21.3063586 9.23430461,20.7394294 C15.6385041,19.038642 21.6659859,15.8260436 27.505109,12.6134452 C27.505109,12.6134452 27.505109,12.6134452 27.505109,12.6134452 C26.7516738,11.5740751 25.9040591,10.534705 25.1506239,9.58982315 L24.6797269,9.02289401 C21.4776271,5.14887827 18.2755274,1.18037433 13.1898396,1.18037433 Z" fill="url(#linearGradient-2)" fill-rule="nonzero"></path>
                </g>
            </g>
        </g>
    </g>
</svg>