<?xml version="1.0" encoding="UTF-8"?>
<svg width="965px" height="543px" viewBox="0 0 965 543" version="1.1" xmlns="http://www.w3.org/2000/svg" xmlns:xlink="http://www.w3.org/1999/xlink">
    <!-- Generator: Sketch 57.1 (83088) - https://sketch.com -->
    <title>monogram-background</title>
    <desc>Created with Sketch.</desc>
    <g id="Landing-page" stroke="none" stroke-width="1" fill="none" fill-rule="evenodd">
        <g id="momentoos-dsk-HD" transform="translate(-238.000000, -178.000000)" fill="#CBCBCB">
            <g id="Body" transform="translate(233.000000, 178.000000)">
                <path d="M906.244418,90.0527778 C824.384206,-7.97351146 689.000676,-28.2541785 585.101351,40.4761795 C563.062238,55.1241566 542.072809,75.4048019 523.182626,100.193122 L487.499888,147.516862 L396.194584,270.330514 L340.57202,343.568526 C332.176572,354.835735 322.73063,363.850084 314.335223,369.483711 C269.207373,398.77875 211.485521,389.7644 175.802762,348.0752 C139.071231,304.133185 139.071231,236.528799 175.802762,192.585784 C196.792211,167.797506 226.177959,154.276438 256.613351,154.276438 C276.554028,154.276438 296.493834,161.036972 314.335223,171.178231 C323.780274,176.810901 332.176573,185.825294 340.57202,197.092503 L355.512502,216.764879 L447.781289,95.2743202 C429.934711,72.7922007 410.4083,54.1084577 389.897572,40.4761784 C285.999097,-28.2541796 150.615588,-7.9735126 68.7562269,90.0527767 C-16.2520756,192.585784 -16.2520756,351.455968 68.7562269,452.862066 C118.081781,512.578966 187.34712,543 256.61335,543 C302.790843,543 347.917782,529.479888 389.897572,501.310844 C411.936645,486.663737 432.926966,466.383135 451.817148,441.593857 L487.499887,394.271074 L579.853982,271.457422 L635.477398,198.21941 C643.872804,186.952201 653.317896,177.937851 661.714234,172.304225 C706.842023,143.009186 764.563025,152.023536 800.245804,193.712736 C836.978227,237.654751 836.978227,305.259137 800.245804,349.202152 C764.563917,390.891308 706.842024,399.904702 661.714234,370.609706 C652.269143,364.976079 643.872804,355.962643 635.477398,344.695434 L619.975538,324.283954 L526.735447,447.051835 C544.709117,469.804934 564.408699,488.684951 585.101351,502.437753 C689.000677,571.169047 824.384207,550.8874 906.244418,452.862069 C991.251861,350.32906 991.251861,191.458877 906.244418,90.0527778 Z" id="monogram-background"></path>
            </g>
        </g>
    </g>
</svg>